<svg width="32" height="32" viewBox="0 0 32 32" fill="none" xmlns="http://www.w3.org/2000/svg">
    <!-- Circular background -->
    <circle cx="16" cy="16" r="16" fill="#E6D5F5"/>

    <!-- Crescent Moon -->
    <circle cx="16" cy="16" r="7" fill="#D4AF37" opacity="0.2"/>
    <path d="M16 9C12.7 9 10 11.7 10 15C10 18.3 12.7 21 16 21C19.3 21 22 18.3 22 15C22 11.7 19.3 9 16 9Z" fill="#D4AF37"/>
    <path d="M18 9C14.7 9 12 11.7 12 15C12 18.3 14.7 21 18 21" fill="#F4C2C2"/>

    <!-- Sun rays -->
    <line x1="16" y1="5" x2="16" y2="7" stroke="#D4AF37" stroke-width="1" stroke-linecap="round" opacity="0.8"/>
    <line x1="21" y1="7" x2="20" y2="9" stroke="#D4AF37" stroke-width="1" stroke-linecap="round" opacity="0.8"/>
    <line x1="25" y1="11" x2="23" y2="12" stroke="#D4AF37" stroke-width="1" stroke-linecap="round" opacity="0.8"/>
    <line x1="11" y1="7" x2="12" y2="9" stroke="#D4AF37" stroke-width="1" stroke-linecap="round" opacity="0.8"/>
    <line x1="7" y1="11" x2="9" y2="12" stroke="#D4AF37" stroke-width="1" stroke-linecap="round" opacity="0.8"/>
</svg>
